D:\school\WTK\thesis\model\3dpredictsim\Results\batch_windlass\Pog_s1_tmt_bCst_d05_k1000_WL10_ig24_act_TTC_GRF.mot
nRows=15
nColumns=19

name D:\school\WTK\thesis\model\3dpredictsim\Results\batch_windlass\Pog_s1_tmt_bCst_d05_k1000_WL10_ig24_act_TTC_GRF.mot
datacolumns 19
datarows 15
range 0.5896191010 0.7547124493
endheader
time 	ground_force_vx	ground_force_vy	ground_force_vz	ground_force_px	ground_force_py	ground_force_pz	1_ground_force_vx	1_ground_force_vy	1_ground_force_vz	1_ground_force_px	1_ground_force_py	1_ground_force_pz	ground_torque_x	ground_torque_y	ground_torque_z	1_ground_torque_x	1_ground_torque_y	1_ground_torque_z
        0.5896191010	       91.7454408254	      372.3481493240	        0.7714215102	        0.3691242584	        0.0000000000	        0.0331417071	      -43.3556774115	       31.2415329915	       -5.9563462542	        0.8877175527	        0.0000000000	       -0.0674331649	        0.0000000000	        0.0000000000	        0.0000000000	        0.0000000000	        0.0000000000	        0.0000000000	
        0.6014114830	       57.7412455165	      258.0790399636	       11.1839563872	        0.3807441895	        0.0000000000	        0.0279409564	     -103.1383509401	       88.4242157267	      -17.6517087288	        0.8997196070	        0.0000000000	       -0.0661089024	        0.0000000000	        0.0000000000	        0.0000000000	        0.0000000000	        0.0000000000	        0.0000000000	
        0.6132038650	       38.8653681654	      200.2011038905	       21.5201835492	        0.3877149374	        0.0000000000	        0.0247642285	     -130.3676797498	      270.0894303143	      -24.6467614498	        0.9190256207	        0.0000000000	       -0.0670363383	        0.0000000000	        0.0000000000	        0.0000000000	        0.0000000000	        0.0000000000	        0.0000000000	
        0.6249962470	       36.2423283315	      165.9385370524	       19.9836528365	        0.3878901681	        0.0000000000	        0.0246938806	      -92.5324119147	      609.7992342120	       12.6295688602	        0.9293764580	        0.0000000000	       -0.0670626160	        0.0000000000	        0.0000000000	        0.0000000000	        0.0000000000	        0.0000000000	        0.0000000000	
        0.6367886291	       25.7267095813	      120.2744748337	       17.2231568969	        0.3879164227	        0.0000000000	        0.0246136154	     -138.2570495260	      873.8803004289	       29.2429435661	        0.9413951067	        0.0000000000	       -0.0657692821	        0.0000000000	        0.0000000000	        0.0000000000	        0.0000000000	        0.0000000000	        0.0000000000	
        0.6485810111	        5.4638148363	       66.2585536144	       14.5357483559	        0.3869834687	        0.0000000000	        0.0248817917	     -167.8148987845	      990.0572165908	       29.0109838657	        0.9534065131	        0.0000000000	       -0.0635615433	        0.0000000000	        0.0000000000	        0.0000000000	        0.0000000000	        0.0000000000	        0.0000000000	
        0.6603733931	       -5.6015989993	       10.1810970774	        2.3660985788	        0.3832980769	        0.0000000000	        0.0241871623	     -164.2592400518	      957.7360822606	       24.2905353924	        0.9597723659	        0.0000000000	       -0.0620760767	        0.0000000000	        0.0000000000	        0.0000000000	        0.0000000000	        0.0000000000	        0.0000000000	
        0.6721657751	       -1.4002109719	        1.1704940384	       -0.0776769289	        0.0000000000	        0.0000000000	        0.0000000000	     -137.1787581861	      874.1933167501	       21.9547887484	        0.9626134879	        0.0000000000	       -0.0613545070	        0.0000000000	        0.0000000000	        0.0000000000	        0.0000000000	        0.0000000000	        0.0000000000	
        0.6839581571	       -6.7843539068	        4.8819355069	       -0.4818108390	        0.0000000000	        0.0000000000	        0.0000000000	     -117.7551546212	      803.7812430505	       19.8741491137	        0.9656917481	        0.0000000000	       -0.0608629206	        0.0000000000	        0.0000000000	        0.0000000000	        0.0000000000	        0.0000000000	        0.0000000000	
        0.6957505392	       -5.4413956649	        3.4509552213	       -0.4175561216	        0.0000000000	        0.0000000000	        0.0000000000	     -104.1601922579	      759.4366283452	       20.2837197895	        0.9687036006	        0.0000000000	       -0.0604762098	        0.0000000000	        0.0000000000	        0.0000000000	        0.0000000000	        0.0000000000	        0.0000000000	
        0.7075429212	       -3.8954529970	        2.2514696616	       -0.3183592405	        0.0000000000	        0.0000000000	        0.0000000000	      -90.1957268449	      724.7726816028	       21.2504178031	        0.9714945553	        0.0000000000	       -0.0602052395	        0.0000000000	        0.0000000000	        0.0000000000	        0.0000000000	        0.0000000000	        0.0000000000	
        0.7193353032	       -2.9646579736	        1.5881862572	       -0.2435069184	        0.0000000000	        0.0000000000	        0.0000000000	      -77.2909016576	      695.9222210973	       21.5350570877	        0.9747794318	        0.0000000000	       -0.0599465613	        0.0000000000	        0.0000000000	        0.0000000000	        0.0000000000	        0.0000000000	        0.0000000000	
        0.7311276852	       -2.4103066983	        1.2217344199	       -0.1970106797	        0.0000000000	        0.0000000000	        0.0000000000	      -65.9167856252	      672.8444760816	       22.4322603158	        0.9793640621	        0.0000000000	       -0.0595116099	        0.0000000000	        0.0000000000	        0.0000000000	        0.0000000000	        0.0000000000	        0.0000000000	
        0.7429200672	       -1.7635219569	        0.8564355501	       -0.1414778623	        0.0000000000	        0.0000000000	        0.0000000000	      -57.2960053636	      653.8553497491	       22.7504735207	        0.9850168425	        0.0000000000	       -0.0588897895	        0.0000000000	        0.0000000000	        0.0000000000	        0.0000000000	        0.0000000000	        0.0000000000	
        0.7547124493	       -1.2704179011	        0.5964293580	       -0.0990337181	        0.0000000000	        0.0000000000	        0.0000000000	      -50.5763005319	      637.5745340006	       22.8215872845	        0.9911387407	        0.0000000000	       -0.0581503240	        0.0000000000	        0.0000000000	        0.0000000000	        0.0000000000	        0.0000000000	        0.0000000000	
